<svg xmlns="http://www.w3.org/2000/svg" aria-hidden="true" style="position:absolute;width:0;height:0;overflow:hidden">
  <defs>
    <symbol id="icon-twitter" viewBox="0 0 32 32">
      <path d="M11.175 27.687c10.848 0 16.783-8.996 16.783-16.783 0-.253 0-.506-.012-.759a12.022 12.022 0 0 0 2.945-3.06 11.956 11.956 0 0 1-3.393.932 5.94 5.94 0 0 0 2.6-3.267 11.712 11.712 0 0 1-3.75 1.426 5.888 5.888 0 0 0-4.302-1.864 5.906 5.906 0 0 0-5.901 5.901c0 .46.057.909.149 1.346-4.9-.242-9.249-2.6-12.159-6.166a5.902 5.902 0 0 0-.794 2.968 5.914 5.914 0 0 0 2.623 4.912 5.964 5.964 0 0 1-2.669-.736v.081a5.911 5.911 0 0 0 4.728 5.786 5.753 5.753 0 0 1-1.553.207c-.38 0-.748-.035-1.104-.103a5.898 5.898 0 0 0 5.51 4.095 11.835 11.835 0 0 1-7.328 2.531c-.472 0-.943-.023-1.403-.081a16.784 16.784 0 0 0 9.03 2.634z"/>
    </symbol>
    <symbol id="icon-union" viewBox="0 0 32 32">
      <path d="M7.784 16a8.216 8.216 0 1 1 16.432 0 8.216 8.216 0 0 1-16.432 0zm2.883 0a5.333 5.333 0 1 0 10.666 0 5.333 5.333 0 0 0-10.666 0zM24.541 9.379a1.92 1.92 0 1 0-.001-3.841 1.92 1.92 0 0 0 .001 3.841z"/>
      <path d="M16 0c-4.345 0-4.89.018-6.597.096C7.7.174 6.537.444 5.519.84c-1.052.409-1.944.956-2.834 1.845S1.248 4.467.84 5.519C.444 6.537.174 7.7.096 9.403.018 11.11 0 11.654 0 16s.018 4.89.096 6.597c.078 1.703.348 2.866.744 3.884.409 1.052.956 1.944 1.845 2.834s1.782 1.437 2.834 1.845c1.018.396 2.181.666 3.884.744C11.11 31.982 11.654 32 16 32s4.89-.018 6.597-.096c1.703-.078 2.866-.348 3.884-.744 1.052-.409 1.944-.956 2.834-1.845s1.436-1.782 1.845-2.834c.396-1.018.666-2.181.744-3.884C31.982 20.89 32 20.345 32 16s-.018-4.89-.096-6.597c-.078-1.703-.348-2.866-.744-3.884-.409-1.052-.956-1.944-1.845-2.834S27.533 1.248 26.481.84C25.463.444 24.3.174 22.597.096 20.89.018 20.346 0 16 0zm0 2.883c4.272 0 4.778.016 6.465.093 1.56.071 2.407.332 2.971.551.747.29 1.28.637 1.84 1.197s.907 1.093 1.197 1.84c.219.564.48 1.411.551 2.971.077 1.687.093 2.193.093 6.465s-.016 4.778-.093 6.465c-.071 1.56-.332 2.407-.551 2.971-.29.747-.637 1.28-1.197 1.84s-1.093.907-1.84 1.197c-.564.219-1.411.48-2.971.551-1.687.077-2.193.093-6.465.093s-4.779-.016-6.465-.093c-1.56-.071-2.407-.332-2.971-.551-.747-.29-1.28-.637-1.84-1.197s-.907-1.093-1.197-1.84c-.219-.564-.48-1.411-.551-2.971-.077-1.687-.093-2.193-.093-6.465s.016-4.778.093-6.465c.071-1.56.332-2.407.551-2.971.29-.747.637-1.28 1.197-1.84s1.093-.907 1.84-1.197c.564-.219 1.411-.48 2.971-.551 1.687-.077 2.193-.093 6.465-.093z"/>
    </symbol>
    <symbol id="icon-facebook" viewBox="0 0 32 32">
      <path d="M30.03 16.081c0-7.703-6.245-13.948-13.948-13.948S2.134 8.378 2.134 16.081c0 6.962 5.101 12.733 11.769 13.779v-9.747h-3.542v-4.032h3.542v-3.073c0-3.496 2.082-5.427 5.269-5.427 1.526 0 3.122.272 3.122.272v3.433h-1.759c-1.733 0-2.273 1.075-2.273 2.178v2.616h3.869l-.619 4.032h-3.25v9.747c6.668-1.046 11.769-6.817 11.769-13.779z"/>
    </symbol>
    <symbol id="icon-2" viewBox="0 0 61 32">
      <path fill="#0b7" d="M.134 25.339v-4.932L12.5.926h4.252v6.826h-2.516L6.441 20.089v.231h17.572v5.019H.135zm14.217 5.206v-6.711l.116-2.184V.925h5.872v29.62h-5.988zm16.936.376a3.38 3.38 0 0 1-2.459-1.012 3.377 3.377 0 0 1-1.012-2.459c0-.945.337-1.755 1.012-2.43a3.377 3.377 0 0 1 2.459-1.012c.926 0 1.736.337 2.43 1.012s1.041 1.485 1.041 2.43c0 .636-.164 1.22-.492 1.75-.318.521-.738.94-1.258 1.258a3.31 3.31 0 0 1-1.721.463zm8.472-.376v-4.512l10.543-9.762a39.765 39.765 0 0 0 2.256-2.343c.617-.694 1.085-1.374 1.403-2.039a5.06 5.06 0 0 0 .477-2.184c0-.868-.198-1.615-.593-2.242a3.895 3.895 0 0 0-1.62-1.461c-.685-.347-1.461-.521-2.329-.521-.906 0-1.697.183-2.372.55s-1.196.892-1.562 1.576-.55 1.499-.55 2.444h-5.944c0-1.938.439-3.621 1.316-5.048s2.107-2.531 3.688-3.312C46.053.91 47.876.52 49.939.52c2.121 0 3.968.376 5.539 1.128 1.581.742 2.811 1.774 3.688 3.095s1.316 2.835 1.316 4.541a8.73 8.73 0 0 1-.665 3.312c-.434 1.09-1.21 2.3-2.329 3.63-1.118 1.321-2.695 2.907-4.729 4.758l-4.324 4.238v.202h12.438v5.12H39.757z" style="fill:var(--color1, #0b7)"/>
    </symbol>
    <symbol id="icon-7" viewBox="0 0 60 32">
      <path fill="#06f" d="M.862 25.339v-4.932L13.228.926h4.252v6.826h-2.517L7.168 20.089v.231H24.74v5.019H.862zm14.217 5.206v-6.711l.116-2.184V.925h5.872v29.62h-5.988zm16.935.376a3.38 3.38 0 0 1-2.459-1.012 3.377 3.377 0 0 1-1.012-2.459c0-.945.337-1.755 1.012-2.43a3.377 3.377 0 0 1 2.459-1.012c.926 0 1.736.337 2.43 1.012s1.041 1.485 1.041 2.43c0 .636-.164 1.22-.492 1.75-.318.521-.738.94-1.258 1.258a3.31 3.31 0 0 1-1.721.463zm8.53-.376L52.823 6.247v-.202H38.519V.925h20.783v5.192L47.009 30.545h-6.465z" style="fill:var(--color2, #06f)"/>
    </symbol>
    <symbol id="icon-instagram" viewBox="0 0 32 32">
      <path d="M9.153 16a6.847 6.847 0 1 1 13.694 0 6.847 6.847 0 0 1-13.694 0zm2.403 0a4.444 4.444 0 1 0 8.888 0 4.444 4.444 0 0 0-8.888 0zM23.117 10.482a1.6 1.6 0 1 0 0-3.2 1.6 1.6 0 0 0 0 3.2z"/>
      <path d="M16 2.667c-3.621 0-4.075.015-5.497.08-1.419.065-2.388.29-3.237.62-.877.341-1.62.797-2.362 1.538S3.707 6.39 3.366 7.267c-.33.848-.555 1.817-.62 3.237-.065 1.422-.08 1.876-.08 5.497s.015 4.075.08 5.497c.065 1.419.29 2.388.62 3.236.341.877.797 1.62 1.538 2.362s1.485 1.197 2.362 1.538c.848.33 1.817.555 3.237.62 1.422.065 1.876.08 5.497.08s4.075-.015 5.497-.08c1.419-.065 2.388-.29 3.237-.62.877-.341 1.62-.797 2.362-1.538s1.197-1.485 1.538-2.362c.33-.848.555-1.817.62-3.236.065-1.422.08-1.876.08-5.497s-.015-4.075-.08-5.497c-.065-1.419-.29-2.388-.62-3.237-.341-.877-.797-1.62-1.538-2.362s-1.485-1.197-2.362-1.538c-.848-.33-1.817-.555-3.237-.62-1.422-.065-1.876-.08-5.497-.08zm0 2.402c3.56 0 3.982.014 5.388.078 1.3.059 2.006.276 2.476.459.622.242 1.067.531 1.533.997s.755.911.997 1.533c.183.47.4 1.176.459 2.476.064 1.406.078 1.828.078 5.388s-.014 3.982-.078 5.388c-.059 1.3-.276 2.006-.459 2.476-.242.622-.531 1.067-.997 1.533s-.911.755-1.533.997c-.47.183-1.176.4-2.476.459-1.406.064-1.827.078-5.388.078s-3.982-.014-5.388-.078c-1.3-.059-2.006-.276-2.476-.459-.622-.242-1.067-.531-1.533-.997s-.756-.911-.997-1.533c-.183-.47-.4-1.176-.459-2.476-.064-1.406-.078-1.828-.078-5.388s.014-3.982.078-5.388c.059-1.3.277-2.006.459-2.476.242-.622.531-1.067.997-1.533s.911-.756 1.533-.997c.47-.183 1.176-.4 2.476-.459 1.406-.064 1.828-.078 5.388-.078z"/>
    </symbol>
    <symbol id="icon-star-fill" viewBox="0 0 32 32">
      <path fill="#f83" d="M13.229 5.546c.866-2.156 1.299-3.234 1.917-3.552a1.867 1.867 0 0 1 1.709 0c.618.318 1.051 1.396 1.917 3.552l2.056 5.12 5.505.373c2.318.157 3.477.236 3.97.725.428.425.625 1.03.528 1.626-.112.687-1.003 1.431-2.786 2.921l-4.234 3.538 1.346 5.351c.567 2.253.85 3.379.537 4a1.868 1.868 0 0 1-1.383 1.005c-.688.106-1.671-.512-3.639-1.747l-4.673-2.934-4.673 2.934c-1.967 1.235-2.951 1.853-3.639 1.747A1.868 1.868 0 0 1 6.304 29.2c-.313-.621-.03-1.748.537-4l1.346-5.351-4.234-3.538c-1.783-1.489-2.674-2.234-2.786-2.921-.097-.595.1-1.201.528-1.626.494-.49 1.653-.568 3.971-.725l5.505-.373 2.056-5.12z" style="fill:var(--color3, #f83)"/>
    </symbol>
    <symbol id="icon-text" viewBox="0 0 33 32">
      <path d="M6 13.333C6 12.597 6.597 12 7.333 12h13.333a1.333 1.333 0 0 1 0 2.666H7.333A1.333 1.333 0 0 1 6 13.333zM6 8c0-.736.597-1.333 1.333-1.333H26a1.333 1.333 0 0 1 0 2.666H7.333A1.333 1.333 0 0 1 6 8zm0 10.667c0-.736.597-1.333 1.333-1.333H26A1.333 1.333 0 0 1 26 20H7.333A1.333 1.333 0 0 1 6 18.667zM6 24c0-.736.597-1.333 1.333-1.333h9.333a1.333 1.333 0 0 1 0 2.666H7.333A1.333 1.333 0 0 1 6 24z"/>
    </symbol>
    <symbol id="icon-button-circle-icon" viewBox="0 0 33 32">
      <path fill="#06f" d="M16.333 0c8.837 0 16 7.163 16 16s-7.163 16-16 16-16-7.163-16-16 7.163-16 16-16z" style="fill:var(--color2, #06f)"/>
      <path fill="#fff" d="M13.667 17.521v2.291c0 .297-.031.405-.089.514s-.143.194-.252.252c-.109.058-.216.089-.514.089h-1.145A2 2 0 0 1 11 16.781v-1.447a5.333 5.333 0 1 1 10.666 0v1.447a2 2 0 0 1-.667 3.886h-1.145c-.297 0-.405-.031-.514-.089s-.194-.143-.252-.252c-.058-.109-.089-.216-.089-.514v-2.291c0-.297.031-.405.089-.514s.143-.194.252-.252c.109-.058.216-.089.514-.089h.479v-1.333a4 4 0 0 0-8 0v1.333h.479c.297 0 .405.031.514.089s.194.143.252.252c.058.109.089.216.089.514z" style="fill:var(--color4, #fff)"/>
    </symbol>
    <symbol id="icon-ball" viewBox="0 0 32 32">
      <path fill="#f83" d="M27.333 16c0 6.259-5.074 11.333-11.333 11.333S4.667 22.259 4.667 16 9.741 4.667 16 4.667 27.333 9.741 27.333 16z" style="fill:var(--color3, #f83)"/>
      <path fill="#8d33ff" d="M2 6C-3.891 6-8.667 10.776-8.667 16.667S-3.891 27.334 2 27.334s10.667-4.776 10.667-10.667S7.891 6 2 6zm-12 10.667c0-6.627 5.373-12 12-12s12 5.373 12 12-5.373 12-12 12-12-5.373-12-12zM30 6c-5.891 0-10.667 4.776-10.667 10.667S24.109 27.334 30 27.334s10.667-4.776 10.667-10.667S35.891 6 30 6zM18 16.667c0-6.627 5.373-12 12-12s12 5.373 12 12-5.373 12-12 12-12-5.373-12-12zM15.333 32.333V.666h1.333v31.667h-1.333z" style="fill:var(--color5, #8d33ff)"/>
      <path fill="#8d33ff" d="M0 16h31.667v1.333H0V16z" style="fill:var(--color5, #8d33ff)"/>
    </symbol>
    <symbol id="icon-heart" viewBox="0 0 32 32">
      <path fill="#8d33ff" d="M2.966 7.774a.934.934 0 0 1 1.314-.141l9.654 7.786a.934.934 0 1 1-1.173 1.455L3.106 9.088a.934.934 0 0 1-.141-1.314z" style="fill:var(--color5, #8d33ff)"/>
      <path fill="#f83" d="M25.153 9.252c-4.785-3.244-8.905 3.406-8.905 3.406s-4.177-6.65-8.962-3.406c-4.234 2.86-1.265 10.555 8.905 16.549 10.227-5.994 13.197-13.636 8.962-16.549z" style="fill:var(--color3, #f83)"/>
      <path fill="#8d33ff" d="M16.044 17.12a.934.934 0 0 1 1.313-.146l6.229 4.983a.934.934 0 0 1-1.167 1.459l-6.229-4.983a.934.934 0 0 1-.146-1.313zM2.277 10.339l-.643-3.212a.623.623 0 0 1 .693-.74l3.247.434a.623.623 0 0 1 .372 1.043l-2.604 2.778a.623.623 0 0 1-1.065-.304z" style="fill:var(--color5, #8d33ff)"/>
      <path fill="#8d33ff" d="M21.134 24.942V21.44l3.114 2.381v2.574c0 .518-.596.81-1.005.492l-1.869-1.453a.622.622 0 0 1-.241-.492z" style="fill:var(--color5, #8d33ff)"/>
      <path fill="#8d33ff" d="m24.515 20.74-3.381.699 3.088 2.501 2.308-.477a.623.623 0 0 0 .278-1.084l-1.763-1.503a.621.621 0 0 0-.53-.136z" style="fill:var(--color5, #8d33ff)"/>
    </symbol>
    <symbol id="icon-lock" viewBox="0 0 32 32">
      <path fill="#f83" d="M15.957 27.046H2.602a1.265 1.265 0 0 1-1.269-1.269V12.422c0-.704.565-1.269 1.269-1.269h13.355c.704 0 1.269.565 1.269 1.269v13.355c0 .704-.565 1.269-1.269 1.269z" style="fill:var(--color3, #f83)"/>
      <path fill="#f83" d="M6.331 7.108a.145.145 0 0 0-.045.103v5.79H4.303v-5.79c0-1.172.959-2.132 2.132-2.132h5.562c1.172 0 2.132.959 2.132 2.132v5.671h-1.983V7.211c0-.034-.014-.071-.045-.103s-.069-.045-.103-.045H6.436a.149.149 0 0 0-.103.045z" style="fill:var(--color3, #f83)"/>
      <path fill="#8d33ff" d="M11.426 16.923c0-1.19-.962-2.151-2.151-2.151a2.15 2.15 0 0 0-1.05 4.025l-1.101 4.521h4.303l-1.101-4.521a2.153 2.153 0 0 0 1.101-1.874z" style="fill:var(--color5, #8d33ff)"/>
      <path fill="#8d33ff" stroke="#8d33ff" stroke-miterlimit="10" stroke-width=".667" d="M29.272 22.583a1.785 1.785 0 1 0-3.36 1.21 1.785 1.785 0 0 0 3.36-1.21zm-2.737-2.329a3.119 3.119 0 1 1 2.113 5.87 3.119 3.119 0 0 1-2.113-5.87z" style="fill:var(--color5, #8d33ff);stroke:var(--color5, #8d33ff)"/>
      <path fill="#8d33ff" stroke="#8d33ff" stroke-linecap="round" stroke-linejoin="round" stroke-miterlimit="10" stroke-width=".667" d="M20.75 4.959a.667.667 0 0 1 .853.401l5.469 15.191a.667.667 0 0 1-1.254.452l-5.47-15.191a.667.667 0 0 1 .401-.853z" style="fill:var(--color5, #8d33ff);stroke:var(--color5, #8d33ff)"/>
      <path fill="#8d33ff" d="m21.037 6.738 1.8 5-2.449.882a.667.667 0 0 1-.853-.401l-1.348-3.745a.667.667 0 0 1 .401-.853l2.449-.882z" style="fill:var(--color5, #8d33ff)"/>
    </symbol>
    <symbol id="icon-hourglass" viewBox="0 0 32 32">
      <path fill="#8d33ff" d="M22.533 2H9.022v6.756a6.755 6.755 0 0 0 3.482 5.911 6.753 6.753 0 0 0-3.482 5.911v6.756h13.511v-6.756a6.755 6.755 0 0 0-3.482-5.911 6.754 6.754 0 0 0 3.483-5.911V2z" style="fill:var(--color5, #8d33ff)"/>
      <path fill="#f83" d="M20.844 14.667h-9.289l-1.689-.563c-.469-1.314-1.295-3.772-.844-3.096.563.844 3.659 1.126 7.6-.281 3.153-1.126 5.442-.094 6.193.563l-1.97 3.378zM8.433 26.208h13.146l2.39-.785c.664-1.831 1.832-5.259 1.195-4.317-.797 1.177-5.179 1.57-10.756-.392-4.462-1.57-7.702-.131-8.764.785l2.788 4.709zM15.215 16.355a.845.845 0 1 1-1.69 0 .845.845 0 0 1 1.69 0zM18.03 19.17a.845.845 0 1 1-1.69 0 .845.845 0 0 1 1.69 0z" style="fill:var(--color3, #f83)"/>
      <path fill="#f83" d="M15.778 20.859a.844.844 0 1 1-1.688 0 .844.844 0 0 1 1.688 0zM7.333 3.333C7.333 2.597 7.93 2 8.666 2h14.222c.736 0 1.333.597 1.333 1.333v1.274c0 .736-.597 1.333-1.333 1.333H8.666a1.333 1.333 0 0 1-1.333-1.333V3.333zM7.333 24.726c0-.736.597-1.333 1.333-1.333h14.222c.736 0 1.333.597 1.333 1.333V26c0 .736-.597 1.333-1.333 1.333H8.666A1.333 1.333 0 0 1 7.333 26v-1.274z" style="fill:var(--color3, #f83)"/>
    </symbol>
    <symbol id="icon-planet" viewBox="0 0 32 32">
      <path fill="#f83" d="M19 23.929a8.85 8.85 0 1 0-6.527-16.451A8.85 8.85 0 1 0 19 23.929z" style="fill:var(--color3, #f83)"/>
      <path fill="#8d33ff" d="M23.153 10.863c-1.226 1.925-3.667 3.873-7.211 5.28s-6.684 1.825-8.896 1.264c-3.117 1.788-5.283 3.351-4.947 4.197.556 1.402 7.606 1.115 15.223-1.907s12.946-7.647 12.389-9.048c-.336-.846-3.063-.621-6.558.214zM9.067 27.197c-.984-.376-1.513-1.257-1.749-1.772-.013-.027-.034-.05-.061-.067s-.059-.025-.092-.025-.065.009-.092.025-.049.04-.061.067c-.236.515-.768 1.398-1.744 1.772-.03.011-.055.031-.073.055a.137.137 0 0 0 0 .164.161.161 0 0 0 .073.055c.983.376 1.512 1.258 1.747 1.772.013.027.034.05.061.067s.059.025.092.025.065-.009.092-.025.049-.04.061-.067c.237-.514.769-1.396 1.749-1.773.029-.012.054-.031.072-.055s.027-.053.026-.081-.01-.057-.028-.081a.162.162 0 0 0-.072-.054zM22.971 3.39c-1.086-.415-1.67-1.387-1.93-1.955-.014-.03-.037-.056-.067-.074a.2.2 0 0 0-.204 0 .165.165 0 0 0-.067.074c-.261.568-.848 1.543-1.925 1.955-.033.013-.061.034-.08.06s-.03.058-.03.09.01.063.03.09c.02.027.047.048.08.06 1.084.415 1.669 1.388 1.928 1.955.014.03.037.056.067.074a.2.2 0 0 0 .204 0 .173.173 0 0 0 .068-.074c.262-.567.849-1.541 1.93-1.956.032-.013.06-.034.079-.061s.029-.058.029-.09-.011-.063-.03-.089a.179.179 0 0 0-.08-.06zM27.921 6.334c-.775-.297-1.193-.991-1.378-1.397-.01-.021-.027-.04-.048-.053s-.047-.02-.073-.02c-.026 0-.051.007-.073.02s-.038.031-.048.053c-.186.406-.606 1.102-1.375 1.397-.023.009-.043.024-.057.043a.107.107 0 0 0 0 .128.13.13 0 0 0 .057.043c.775.297 1.192.992 1.377 1.397.01.021.027.04.048.053s.047.02.073.02.051-.007.073-.02a.123.123 0 0 0 .048-.053c.187-.405.606-1.101 1.379-1.397.023-.009.043-.024.056-.044s.021-.041.021-.064-.008-.045-.022-.064a.13.13 0 0 0-.057-.043z" style="fill:var(--color5, #8d33ff)"/>
    </symbol>
    <symbol id="icon-apple" viewBox="0 0 32 32">
      <path fill="#8d33ff" d="M15.083 4.75a.75.75 0 0 1 1.5 0v6h-1.5v-6z" style="fill:var(--color5, #8d33ff)"/>
      <path fill="#f83" d="M17.259 9.285c-.289.131-.878.34-1.426.34s-1.137-.208-1.426-.34c-.728-.467-1.655-.785-2.813-.785-4.053 0-6.547 3.375-6.235 7.5s2.494 12 8.418 12c.694 0 1.354-.165 2.056-.741.702.576 1.362.741 2.056.741 5.924 0 8.106-7.875 8.418-12s-2.182-7.5-6.235-7.5c-1.158 0-2.085.319-2.813.785z" style="fill:var(--color3, #f83)"/>
      <path fill="#8d33ff" d="M20.953 5.533c-.083.598-.555 1.896-1.782 2.311-1.533.518-2.559.011-2.818-.756-.259-.767.248-1.793 1.782-2.311 1.227-.415 2.39.331 2.818.756h.001z" style="fill:var(--color5, #8d33ff)"/>
    </symbol>
    <symbol id="icon-speaker" viewBox="0 0 32 32">
      <path fill="#8d33ff" d="M19.18 20.616a5.83 5.83 0 0 1-.361 1.193l.09-.217c-.193.452-.44.88-.741 1.265.048-.06.096-.121.139-.181a5.337 5.337 0 0 1-.976.976c.06-.048.121-.096.181-.139-.355.271-.741.5-1.151.675l.217-.09a4.909 4.909 0 0 1-1.241.343c.078-.012.163-.024.241-.03a4.82 4.82 0 0 1-1.247 0c.078.012.163.024.241.03a4.795 4.795 0 0 1-1.223-.331l.217.09a4.785 4.785 0 0 1-1.048-.615c.06.048.12.096.181.139a5.19 5.19 0 0 1-.91-.91c.048.06.096.12.139.181a5.496 5.496 0 0 1-.687-1.181l.09.217a5.647 5.647 0 0 1-.392-1.434c.012.078.024.163.03.241a6.076 6.076 0 0 1 0-1.548 3.303 3.303 0 0 0-.03.241c.012-.109.03-.223.054-.331a.738.738 0 0 0 .018-.361.678.678 0 0 0-.108-.337.918.918 0 0 0-.542-.416c-.229-.054-.488-.042-.699.09-.187.121-.374.313-.416.542-.12.645-.175 1.301-.108 1.952.066.627.193 1.235.434 1.813.133.313.265.621.44.91s.374.56.59.819a5.597 5.597 0 0 0 2.145 1.585 5.545 5.545 0 0 0 2.699.422 6.13 6.13 0 0 0 1-.181c.319-.09.627-.217.934-.349a5.925 5.925 0 0 0 1.494-.994c.458-.41.861-.898 1.181-1.422a6.838 6.838 0 0 0 .753-1.747c.036-.145.072-.289.103-.434a.742.742 0 0 0 .018-.362.678.678 0 0 0-.108-.337.918.918 0 0 0-.542-.416c-.229-.054-.488-.042-.699.09-.175.133-.355.319-.398.548z" style="fill:var(--color5, #8d33ff)"/>
      <path fill="#f83" d="M25.017 24.364a1.956 1.956 0 0 1-1.95-1.95V7.949c0-1.069.875-1.95 1.95-1.95 1.069 0 1.95.875 1.95 1.95V22.42a1.958 1.958 0 0 1-1.95 1.943zM6.616 20.626a1.956 1.956 0 0 1-1.95-1.95v-6.983c0-1.069.875-1.95 1.95-1.95 1.069 0 1.95.874 1.95 1.95v6.983a1.964 1.964 0 0 1-1.95 1.95z" style="fill:var(--color3, #f83)"/>
      <path fill="#f83" d="m8.474 11.607 15.863-3.703v14.594L8.474 18.853v-7.245z" style="fill:var(--color3, #f83)"/>
    </symbol>
    <symbol id="icon-credit-card" viewBox="0 0 32 32">
      <path fill="#8d33ff" d="M2.136 15.198a2 2 0 0 1 1.03-2.634l15.425-6.756a2 2 0 0 1 2.634 1.03l3.412 7.789a2 2 0 0 1-1.03 2.634L8.182 24.017a2 2 0 0 1-2.634-1.03l-3.412-7.789z" style="fill:var(--color5, #8d33ff)"/>
      <path fill="#f83" d="M7.865 17.889a2 2 0 0 1 1.03-2.634L24.32 8.499a2 2 0 0 1 2.634 1.03l3.412 7.789a2 2 0 0 1-1.03 2.634l-15.425 6.756a2 2 0 0 1-2.634-1.03l-3.412-7.789z" style="fill:var(--color3, #f83)"/>
      <path fill="#8d33ff" d="M31.639 15.484 9.728 25.081l-.802-1.832 21.911-9.597.802 1.832zM25.828 11.413a1.489 1.489 0 1 1-2.727 1.195 1.489 1.489 0 0 1 2.727-1.195z" style="fill:var(--color5, #8d33ff)"/>
    </symbol>
    <symbol id="icon-smile" viewBox="0 0 32 32">
      <path fill="#f83" d="M24.667 17.333C24.667 23.224 19.891 28 14 28S3.333 23.224 3.333 17.333 8.109 6.666 14 6.666s10.667 4.776 10.667 10.667z" style="fill:var(--color3, #f83)"/>
      <path fill="#8d33ff" d="m7.324 18.013-.275.148c-.135.072-.253.04-.336-.09-.083-.126-.057-.27.074-.364.384-.288.815-.337 1.269-.288.065.009.135.018.201.036.166.036.266.171.24.319-.026.153-.161.247-.331.22-.07-.009-.144-.027-.262-.049.039.292.052.567.113.832.532 2.405 2.023 3.903 4.268 4.591 2.027.621 3.95.292 5.689-.962 1.317-.953 2.119-2.266 2.367-3.921.031-.193.031-.391.048-.611-.118.022-.218.045-.314.058-.14.018-.266-.076-.297-.225-.026-.144.022-.265.166-.297.51-.126 1.007-.117 1.465.18.192.121.235.261.144.418-.079.139-.231.157-.414.049-.048-.027-.096-.054-.144-.076-.052.36-.092.706-.161 1.052-.31 1.52-1.099 2.734-2.271 3.678-1.434 1.156-3.082 1.673-4.887 1.533-2.241-.171-4.063-1.165-5.34-3.111-.589-.895-.907-1.897-.99-2.977a.663.663 0 0 1-.022-.144z" style="fill:var(--color5, #8d33ff)"/>
      <path fill="#8d33ff" d="M20.043 17.661c.107-.025.212-.043.313-.053l-.017.003-.113.022c-.071.014-.129.026-.188.034l.037.264-.034-.265h.003l.003.001-.002-.003-.003-.005zm.635-.053-.023.287c-.005.061-.008.127-.012.195-.008.144-.016.297-.038.436-.259 1.724-1.099 3.101-2.474 4.096-1.806 1.302-3.815 1.647-5.924 1.001-2.332-.715-3.896-2.284-4.45-4.787a5.24 5.24 0 0 1-.088-.599c-.01-.089-.019-.175-.03-.257l-.041-.304-.03.003.022.315c.004.057.007.07.012.088l.008.027.002.027c.08 1.039.385 1.997.947 2.85 1.229 1.874 2.974 2.827 5.138 2.992 1.736.134 3.317-.361 4.699-1.475 1.128-.908 1.881-2.069 2.177-3.523.049-.244.082-.485.117-.74l.042-.297.047-.321a1.144 1.144 0 0 0-.1-.014zm.262.053.169.079c.057.027.112.058.158.083l.008.005a.32.32 0 0 0 .036.019.558.558 0 0 0-.043-.031l-.003-.002a1.316 1.316 0 0 0-.325-.153zm-13.719.104a1.195 1.195 0 0 0-.23.124l.208-.112.023-.012zm.681-.092.052.01.127.025c.05.01.083.017.119.022l.008.001c.013.002.021.001.025.001h.001v-.001c-.004-.003-.013-.011-.033-.015l-.007-.002-.007-.002a1.235 1.235 0 0 0-.162-.028c-.041-.004-.082-.008-.122-.01zm13.652-.308c-.539-.349-1.118-.351-1.67-.215a.47.47 0 0 0-.323.245.568.568 0 0 0-.044.36l.001.006c.055.27.297.47.585.436a2.499 2.499 0 0 1-.025.246v.002c-.238 1.585-1.002 2.833-2.26 3.744-1.673 1.207-3.509 1.519-5.455.923-2.158-.661-3.576-2.086-4.086-4.393l-.001-.002a3.778 3.778 0 0 1-.068-.452.532.532 0 0 0 .55-.446l-.263-.045.263.046c.055-.311-.162-.561-.438-.624-.077-.021-.157-.031-.214-.039l-.014-.002-.007-.001c-.49-.053-.999-.004-1.456.338-.11.08-.193.195-.221.333s.006.277.081.39a.524.524 0 0 0 .303.234c.11.029.216.015.311-.021a6.416 6.416 0 0 0 1.009 2.851c1.325 2.02 3.225 3.054 5.543 3.231 1.874.145 3.589-.394 5.075-1.591 1.217-.98 2.043-2.247 2.365-3.832.048-.236.082-.476.114-.712a.552.552 0 0 0 .207.015.484.484 0 0 0 .368-.25.527.527 0 0 0 .056-.44.658.658 0 0 0-.287-.335z" style="fill:var(--color5, #8d33ff)"/>
      <path fill="#8d33ff" d="M12.4 14.729c-.013.974-.081 1.726-.381 2.436a1.917 1.917 0 0 1-.309.501c-.233.273-.524.264-.762-.005-.287-.323-.421-.729-.506-1.143-.242-1.138-.246-2.277.067-3.401.076-.282.206-.565.367-.81.264-.41.641-.405.927-.009.291.405.417.879.488 1.361.058.423.085.856.108 1.07zM16.236 14.962c-.25.197-.386.397-.428.523a.5.5 0 1 1-.948-.318c.124-.37.413-.719.757-.989a3.206 3.206 0 0 1 1.306-.613c.507-.106 1.072-.086 1.631.148s1.083.668 1.529 1.336a.5.5 0 1 1-.832.554c-.354-.532-.732-.822-1.082-.968s-.707-.162-1.041-.092c-.338.071-.65.229-.892.419zM24.208 3.663c-1.229-.47-1.892-1.571-2.186-2.215-.016-.034-.042-.063-.076-.083a.228.228 0 0 0-.23 0 .184.184 0 0 0-.076.083c-.296.643-.96 1.748-2.181 2.215-.037.014-.069.038-.091.069s-.034.066-.034.102.012.072.034.102a.21.21 0 0 0 .091.069c1.228.47 1.89 1.572 2.183 2.215.016.034.042.063.077.083a.23.23 0 0 0 .23 0 .184.184 0 0 0 .076-.083c.297-.642.962-1.745 2.186-2.216.037-.015.068-.039.089-.069s.033-.066.033-.102-.012-.071-.034-.101a.201.201 0 0 0-.091-.068zM28.149 7.664c-.878-.336-1.351-1.122-1.561-1.582-.011-.024-.03-.045-.055-.06S26.48 6 26.451 6c-.029 0-.058.008-.082.022s-.043.035-.055.06c-.211.46-.686 1.248-1.558 1.582-.027.01-.049.027-.065.049a.123.123 0 0 0 0 .146.14.14 0 0 0 .065.049c.877.336 1.35 1.123 1.559 1.582.011.024.03.045.055.06s.053.022.082.022.058-.008.082-.022a.144.144 0 0 0 .055-.06c.212-.459.687-1.247 1.561-1.583.026-.011.048-.028.064-.049s.024-.047.023-.073c0-.026-.009-.051-.025-.072s-.038-.038-.065-.049z" style="fill:var(--color5, #8d33ff)"/>
    </symbol>
    <symbol id="icon-mountain" viewBox="0 0 32 32">
      <path fill="#8d33ff" d="M14 4.667h5.333c.368 0 .667.298.667.667v2.667a.667.667 0 0 1-.667.667H14v-4z" style="fill:var(--color5, #8d33ff)"/>
      <path fill="#8d33ff" d="M14 4c.184 0 .333.149.333.333l-.002 7.947a.333.333 0 1 1-.666 0l.002-7.947c0-.184.149-.333.333-.333z" style="fill:var(--color5, #8d33ff)"/>
      <path fill="#f83" d="m4.089 27.003 9.32-16.31a.667.667 0 0 1 1.163.009l4.545 8.249 1.912-3.38a.667.667 0 0 1 1.166.009l6.237 11.434a.667.667 0 0 1-.585.986H4.669a.666.666 0 0 1-.579-.997z" style="fill:var(--color3, #f83)"/>
      <path fill="#8d33ff" d="M18.667 14H10v-4h8.667v4z" style="fill:var(--color5, #8d33ff)"/>
    </symbol>
    <symbol id="icon-menu" viewBox="0 0 32 32">
      <path d="M2.667 8c0-.736.597-1.333 1.333-1.333h24a1.333 1.333 0 0 1 0 2.666H4A1.333 1.333 0 0 1 2.667 8zM2.667 16c0-.736.597-1.333 1.333-1.333h24a1.333 1.333 0 0 1 0 2.666H4A1.333 1.333 0 0 1 2.667 16zM4 22.666a1.333 1.333 0 0 0 0 2.666h24a1.333 1.333 0 0 0 0-2.666H4z"/>
    </symbol>
    <symbol id="icon-userpic" viewBox="0 0 32 32">
      <path d="M20 12a4 4 0 1 1-8 0 4 4 0 0 1 8 0z"/>
      <path d="M29.333 16c0 7.364-5.969 13.333-13.333 13.333S2.667 23.363 2.667 16C2.667 8.636 8.637 2.667 16 2.667S29.333 8.637 29.333 16zm-24 0c0 2.225.681 4.291 1.847 6.001 2.351-2.075 5.438-3.334 8.82-3.334s6.469 1.259 8.82 3.334A10.623 10.623 0 0 0 26.667 16c0-5.891-4.776-10.667-10.667-10.667S5.333 10.109 5.333 16zM16 26.666a10.628 10.628 0 0 1-7.056-2.667c1.88-1.66 4.35-2.667 7.056-2.667s5.175 1.007 7.056 2.667A10.624 10.624 0 0 1 16 26.666z"/>
    </symbol>
    <symbol id="icon-logo" viewBox="0 0 156 32">
      <path fill="#06f" d="M19.428 11.25v3.248h-7.257l-.806 1.299V11.25h8.064zM11.364 16.447h8.064v3.248h-7.257l-.806 1.299v-4.547z" style="fill:var(--color2, #06f)"/>
      <path fill="#06f" d="M0 15.541c0 6.236 0 9.354 1.486 11.594a8.84 8.84 0 0 0 2.433 2.45c2.224 1.497 5.321 1.497 11.515 1.497s9.29 0 11.515-1.497a8.84 8.84 0 0 0 2.433-2.45c1.486-2.24 1.486-5.358 1.486-11.594s0-9.354-1.486-11.594a8.84 8.84 0 0 0-2.433-2.45C24.725 0 21.628 0 15.434 0S6.144 0 3.919 1.497a8.84 8.84 0 0 0-2.433 2.45C0 6.187 0 9.305 0 15.541zm11.364-8.513v3.573l.806-1.299h7.257V7.029c0-.521.128-.812.968-.812h.323c.84 0 .968.291.968.812v16.889c0 .521-.128.812-.968.812h-.323c-.84 0-.968-.291-.968-.812v-2.273h-8.064v2.273c0 .521-.128.812-.968.812h-.323c-.84 0-.968-.291-.968-.812V7.029c0-.521.128-.812.968-.812h.323c.84 0 .968.291.968.812zM49.923 6.105v7.268h-5.925V6.105h-4.309v18.983h4.309v-7.539h5.925v7.539h4.309V6.105h-4.309zM60.942 19.936h9.561a7.917 7.917 0 0 0 .162-1.627c0-4.095-2.909-7.159-6.841-7.159-4.255 0-7.164 3.119-7.164 7.159s2.855 7.159 7.46 7.159c2.559 0 4.552-.949 5.871-2.793l-3.232-1.871c-.539.597-1.481 1.031-2.586 1.031-1.481 0-2.72-.488-3.232-1.898zm-.08-3.037c.377-1.383 1.401-2.142 2.936-2.142 1.212 0 2.424.57 2.855 2.142h-5.791zM82.602 12.804v-1.275h4.04v13.56h-4.04v-1.275c-.889 1.031-2.209 1.654-4.013 1.654-3.528 0-6.437-3.119-6.437-7.159s2.909-7.159 6.437-7.159c1.805 0 3.124.624 4.013 1.654zm-6.41 5.505c0 2.034 1.347 3.309 3.205 3.309s3.205-1.275 3.205-3.309S81.255 15 79.397 15s-3.205 1.275-3.205 3.309zM99.383 6.105v6.698c-.889-1.031-2.209-1.654-4.013-1.654-3.528 0-6.437 3.119-6.437 7.159s2.909 7.159 6.437 7.159c1.805 0 3.124-.624 4.013-1.654v1.275h4.04V6.105h-4.04zm-3.205 15.513c-1.858 0-3.205-1.275-3.205-3.309S94.32 15 96.178 15s3.205 1.275 3.205 3.309-1.347 3.309-3.205 3.309zM119.26 18.797l1.939-7.268h4.309l-4.309 13.56h-3.771l-2.155-7.241-2.155 7.241h-3.771l-4.309-13.56h4.309l1.939 7.268 2.101-7.268h3.771l2.101 7.268zM136.364 11.529v1.275c-.89-1.031-2.209-1.654-4.014-1.654-3.528 0-6.437 3.119-6.437 7.159s2.909 7.159 6.437 7.159c1.805 0 3.124-.624 4.014-1.654v1.275h4.04v-13.56h-4.04zm-3.206 10.089c-1.859 0-3.205-1.275-3.205-3.309S131.3 15 133.158 15c1.857 0 3.205 1.275 3.205 3.309s-1.348 3.309-3.205 3.309zM149.318 19.828l2.532-8.299h4.31l-4.605 13.153c-1.508 4.312-3.905 6.02-7.676 5.831v-3.797c1.885 0 2.774-.597 3.366-2.251l-5.359-12.936h4.444l2.989 8.299z" style="fill:var(--color2, #06f)"/>
    </symbol>
    <symbol id="icon-vector" viewBox="0 0 1 32">
      <path fill="none" stroke="#f83" style="stroke: var(--color1, #f83)" stroke-linejoin="miter" stroke-linecap="butt" stroke-miterlimit="4" stroke-width="0.8312" d="M0.416 0v32"></path>
    </symbol>
    <symbol id="icon-vector-down" viewBox="0 0 7 32">
      <path fill="#f83" style="fill: var(--color1, #f83)" d="M2.992 31.88c0.074 0.074 0.177 0.12 0.29 0.12s0.216-0.046 0.29-0.12l2.611-2.611c0.071-0.074 0.115-0.174 0.115-0.285 0-0.227-0.184-0.41-0.41-0.41-0.111 0-0.211 0.044-0.285 0.115l-2.321 2.321-2.321-2.321c-0.073-0.069-0.172-0.111-0.281-0.111-0.227 0-0.41 0.184-0.41 0.41 0 0.109 0.042 0.208 0.111 0.281l-0-0 2.611 2.611zM2.872 0v31.59h0.821v-31.59h-0.821z"></path>
    </symbol>
    <symbol id="icon-audio" viewBox="0 0 33 32">
      <path fill="#fff" style="fill: var(--color1, #fff)" d="M11.333 19.043v4.581c0 0.595-0.061 0.811-0.179 1.027-0.116 0.216-0.288 0.388-0.498 0.501l-0.006 0.003c-0.216 0.117-0.432 0.179-1.027 0.179h-2.291c-0.002 0-0.004 0-0.006 0-2.209 0-4-1.791-4-4 0-1.733 1.103-3.209 2.645-3.765l0.028-0.009v-2.893c0-5.891 4.776-10.667 10.667-10.667s10.667 4.776 10.667 10.667v0 2.893c1.567 0.566 2.666 2.041 2.666 3.772 0 2.209-1.79 4-3.999 4.001h-2.291c-0.595 0-0.809-0.061-1.027-0.179-0.216-0.116-0.388-0.288-0.501-0.498l-0.003-0.006c-0.116-0.216-0.179-0.432-0.179-1.027v-4.581c0-0.595 0.063-0.809 0.179-1.027 0.116-0.216 0.288-0.388 0.498-0.501l0.006-0.003c0.217-0.117 0.432-0.179 1.027-0.179h0.957v-2.667c0-4.418-3.582-8-8-8s-8 3.582-8 8v0 2.667h0.957c0.595 0 0.811 0.061 1.027 0.179 0.217 0.116 0.388 0.287 0.504 0.504 0.117 0.216 0.179 0.432 0.179 1.027z"></path>
    </symbol>
  <defs>
    <linearGradient id="paint0_linear_3322_796" x1="11.9004" y1="1.69621" x2="-1.86101" y2="15.4577" gradientUnits="userSpaceOnUse">
      <stop stop-color="#00A0FF" />
      <stop offset="0.007" stop-color="#00A1FF" />
      <stop offset="0.26" stop-color="#00BEFF" />
      <stop offset="0.512" stop-color="#00D2FF" />
      <stop offset="0.76" stop-color="#00DFFF" />
      <stop offset="1" stop-color="#00E3FF" />
    </linearGradient>
    <linearGradient id="paint1_linear_3322_796" x1="21.7726" y1="10.959" x2="1.93149" y2="10.959" gradientUnits="userSpaceOnUse">
      <stop stop-color="#FFE000" />
      <stop offset="0.409" stop-color="#FFBD00" />
      <stop offset="0.775" stop-color="#FFA500" />
      <stop offset="1" stop-color="#FF9C00" />
    </linearGradient>
    <linearGradient id="paint2_linear_3322_796" x1="14.3897" y1="12.8441" x2="-4.27177" y2="31.5056" gradientUnits="userSpaceOnUse">
      <stop stop-color="#FF3A44" />
      <stop offset="1" stop-color="#C31162" />
    </linearGradient>
    <linearGradient id="paint3_linear_3322_796" x1="0.0156732" y1="-5.30011" x2="8.34886" y2="3.03307" gradientUnits="userSpaceOnUse">
      <stop stop-color="#32A071" />
      <stop offset="0.069" stop-color="#2DA771" />
      <stop offset="0.476" stop-color="#15CF74" />
      <stop offset="0.801" stop-color="#06E775" />
      <stop offset="1" stop-color="#00F076" />
    </linearGradient>
  </defs>
  <symbol id="icon-google-play" viewBox="0 0 33 32">
    <path fill="#fff" style="fill: var(--color1, #fff)" d="M0.75 9.6c0-3.36 0-5.040 0.654-6.324 0.586-1.134 1.488-2.036 2.589-2.606l0.033-0.016c1.284-0.654 2.964-0.654 6.324-0.654h12.8c3.36 0 5.040 0 6.324 0.654 1.134 0.586 2.036 1.488 2.606 2.589l0.016 0.033c0.654 1.284 0.654 2.964 0.654 6.324v12.8c0 3.36 0 5.040-0.654 6.324-0.586 1.134-1.488 2.036-2.589 2.606l-0.033 0.016c-1.284 0.654-2.964 0.654-6.324 0.654h-12.8c-3.36 0-5.040 0-6.324-0.654-1.134-0.586-2.036-1.488-2.606-2.589l-0.016-0.033c-0.654-1.284-0.654-2.964-0.654-6.324v-12.8z"></path>
    <path fill="none" stroke="#bcbaba" style="stroke: var(--color2, #bcbaba)" stroke-linejoin="miter" stroke-linecap="butt" stroke-miterlimit="4" stroke-width="1" d="M1.25 9.6c0-1.688 0-2.925 0.080-3.9 0.080-0.97 0.234-1.637 0.52-2.197 0.537-1.040 1.363-1.866 2.372-2.39l0.031-0.014c0.56-0.285 1.227-0.439 2.197-0.519 0.975-0.080 2.212-0.080 3.9-0.080h12.8c1.688 0 2.925 0 3.9 0.080 0.97 0.080 1.637 0.234 2.197 0.52 1.040 0.537 1.866 1.363 2.39 2.372l0.014 0.031c0.285 0.56 0.44 1.227 0.519 2.197 0.080 0.975 0.080 2.212 0.080 3.9v12.8c0 1.688 0 2.925-0.080 3.9-0.080 0.97-0.234 1.637-0.52 2.197-0.537 1.040-1.363 1.866-2.372 2.39l-0.031 0.014c-0.56 0.285-1.227 0.44-2.197 0.519-0.975 0.080-2.212 0.080-3.9 0.080h-12.8c-1.688 0-2.925 0-3.9-0.080-0.97-0.080-1.637-0.234-2.197-0.52-1.040-0.537-1.866-1.363-2.39-2.372l-0.014-0.031c-0.285-0.56-0.44-1.227-0.519-2.197-0.080-0.975-0.080-2.212-0.080-3.9v-12.8z"></path>
    <path fill="url(#paint0_linear_3322_796)" d="M8.59 5.743c-0.24 0.252-0.384 0.647-0.384 1.15v18.131c0 0.504 0.144 0.9 0.384 1.15l0.060 0.060 10.162-10.161v-0.24l-10.162-10.162-0.060 0.072z"></path>
    <path fill="url(#paint1_linear_3322_796)" d="M22.191 19.464l-3.38-3.391v-0.24l3.392-3.391 0.072 0.048 4.014 2.277c1.15 0.647 1.15 1.713 0 2.372l-4.098 2.325z"></path>
    <path fill="url(#paint2_linear_3322_796)" d="M22.275 19.416l-3.463-3.463-10.222 10.222c0.371 0.395 1.006 0.455 1.701 0.048l11.984-6.807z"></path>
    <path fill="url(#paint3_linear_3322_796)" d="M22.275 12.502l-11.985-6.807c-0.707-0.395-1.33-0.347-1.701 0.048l10.222 10.222 3.463-3.463z"></path>
  </symbol>
    <defs>
    <linearGradient id="paint0_linear_3322_770" x1="16.25" y1="32" x2="16.25" y2="0" gradientUnits="userSpaceOnUse">
      <stop stop-color="#1D76F2" />
      <stop offset="1" stop-color="#1AC2FB" />
    </linearGradient>
  </defs>
  <symbol id="icon-app-store" viewBox="0 0 33 32">
    <path fill="url(#paint0_linear_3322_770)" d="M0.25 9.6c0-3.36 0-5.040 0.654-6.324 0.586-1.134 1.488-2.036 2.589-2.606l0.033-0.016c1.284-0.654 2.964-0.654 6.324-0.654h12.8c3.36 0 5.040 0 6.324 0.654 1.134 0.586 2.036 1.488 2.606 2.589l0.016 0.033c0.654 1.284 0.654 2.964 0.654 6.324v12.8c0 3.36 0 5.040-0.654 6.324-0.586 1.134-1.488 2.036-2.589 2.606l-0.033 0.016c-1.284 0.654-2.964 0.654-6.324 0.654h-12.8c-3.36 0-5.040 0-6.324-0.654-1.134-0.586-2.036-1.488-2.606-2.589l-0.016-0.033c-0.654-1.284-0.654-2.964-0.654-6.324v-12.8z"></path>
    <path fill="none" stroke="#fff" style="stroke: var(--color1, #fff)" stroke-linejoin="miter" stroke-linecap="butt" stroke-miterlimit="4" stroke-width="1" d="M0.75 9.6c0-1.688 0-2.925 0.080-3.9 0.080-0.97 0.234-1.637 0.52-2.197 0.537-1.040 1.363-1.866 2.372-2.39l0.031-0.014c0.56-0.285 1.227-0.439 2.197-0.519 0.975-0.080 2.212-0.080 3.9-0.080h12.8c1.688 0 2.925 0 3.9 0.080 0.97 0.080 1.637 0.234 2.197 0.52 1.040 0.537 1.866 1.363 2.39 2.372l0.014 0.031c0.285 0.56 0.44 1.227 0.519 2.197 0.080 0.975 0.080 2.212 0.080 3.9v12.8c0 1.688 0 2.925-0.080 3.9-0.080 0.97-0.234 1.637-0.52 2.197-0.537 1.040-1.363 1.866-2.372 2.39l-0.031 0.014c-0.56 0.285-1.227 0.44-2.197 0.519-0.975 0.080-2.212 0.080-3.9 0.080h-12.8c-1.688 0-2.925 0-3.9-0.080-0.97-0.080-1.637-0.234-2.197-0.52-1.040-0.537-1.866-1.363-2.39-2.372l-0.014-0.031c-0.285-0.56-0.439-1.227-0.519-2.197-0.080-0.975-0.080-2.212-0.080-3.9v-12.8z"></path>
    <path fill="#fff" style="fill: var(--color1, #fff)" d="M10.656 23.297h0.003l-1.080 1.87c-0.254 0.416-0.706 0.689-1.221 0.689-0.788 0-1.427-0.639-1.427-1.427 0-0.253 0.066-0.49 0.181-0.696l-0.004 0.007 0.871-1.51c0.137-0.195 0.473-0.533 1.146-0.47 0.742 0.080 2.165 0.595 1.531 1.537zM25.97 18.52h-3.367c-0.23-0.015-0.33-0.097-0.369-0.144l-0.002-0.005-3.604-6.242-0.005 0.004-0.216-0.31c-0.354-0.542-0.916 0.843-0.916 0.843-0.672 1.544 0.095 3.3 0.362 3.83l5.006 8.67c0.251 0.43 0.711 0.713 1.236 0.713 0.788 0 1.427-0.639 1.427-1.427 0-0.263-0.071-0.509-0.195-0.721l0.004 0.007-1.252-2.168c-0.024-0.052-0.067-0.195 0.19-0.195h1.7c0.788 0 1.427-0.639 1.427-1.427s-0.639-1.427-1.427-1.427v0zM19.43 20.46s0.18 0.915-0.515 0.915h-12.445c-0.788 0-1.428-0.639-1.428-1.427s0.639-1.427 1.428-1.427h3.2c0.516-0.03 0.638-0.328 0.638-0.328l0.003 0.002 4.175-7.234c0.023-0.043 0.037-0.094 0.037-0.148 0-0.053-0.013-0.102-0.035-0.146l0.001 0.002-1.38-2.389c-0.12-0.205-0.191-0.451-0.191-0.713 0-0.788 0.639-1.428 1.428-1.428 0.526 0 0.985 0.284 1.233 0.707l0.004 0.007 0.64 1.108 0.638-1.106c0.254-0.416 0.706-0.689 1.221-0.689 0.788 0 1.427 0.639 1.427 1.427 0 0.253-0.066 0.49-0.181 0.696l0.004-0.007-5.812 10.066c-0.026 0.061-0.033 0.158 0.156 0.174h3.474s2.008 0.066 2.282 1.94z"></path>
  </symbol>
  </defs>
</svg>
